<?xml version="1.0" encoding="utf-8"?>
<svg width="65" height="48" viewBox="0 0 65 48" fill="none" xmlns="http://www.w3.org/2000/svg">
  <g>
    <g transform="matrix(1 0 0 1 4.167 6.191)">
      <path d="M19.9908 0.0769291C15.914 1.16601 12.6412 1.90422 8.22398 2.73112C6.7325 3.01036 5.49567 3.26083 5.47556 3.28767C5.45534 3.31451 5.31479 3.98985 5.16302 4.78812C5.01125 5.58654 4.71893 6.64967 4.51328 7.15046L4.13941 8.06114L2.63404 8.22797C0.925353 8.41735 0.543372 8.6174 0.203501 9.50109C-0.164702 10.4583 -0.0324866 11.3488 0.593925 12.1299C0.814247 12.4047 1.03646 12.505 1.5211 12.5478C1.87164 12.579 6.50817 12.1637 11.8246 11.6253L21.4907 10.6464L21.7129 11.0512C22.8603 13.1423 24.3779 14.3966 26.4324 14.952C27.214 15.1633 29.6575 15.1626 30.441 14.9509C32.4912 14.3969 34.0101 13.1408 35.1567 11.0512L35.3789 10.6464L45.0451 11.6253C50.3615 12.1637 54.998 12.579 55.3485 12.5478C55.8316 12.5051 56.0569 12.404 56.2795 12.1299C57.0964 11.1243 57.0373 9.55566 56.1519 8.74597C55.8447 8.46495 55.5446 8.37909 54.4669 8.26342C53.7458 8.18601 53.1031 8.09925 53.0387 8.07063C52.7982 7.96386 52.1896 6.16 51.9258 4.77255C51.7757 3.98273 51.6375 3.31599 51.6186 3.29078C51.5997 3.26557 50.188 2.97996 48.4813 2.65608C45.1438 2.02286 42.074 1.34248 38.7121 0.491119C36.7286 -0.011158 36.5004 -0.0393333 34.9345 0.0251751C33.6679 0.0775223 33.0686 0.171539 32.4376 0.416969C31.2808 0.866898 30.0258 1.7755 29.2249 2.74283L28.5459 3.56305L27.8515 2.72192C27.0962 1.80694 25.6185 0.761457 24.4906 0.343861C23.8291 0.0990238 20.6208 -0.091238 19.9908 0.0769291ZM23.3786 2.57822C24.0301 2.72984 24.6601 2.99861 25.2248 3.34939C26.1032 3.89495 27.1338 4.87272 27.4946 5.9645C27.6283 6.36924 29.429 6.49188 29.6616 5.9645C29.9975 4.96971 30.7355 4.08252 31.8066 3.4023C33.0727 2.59824 33.7019 2.42726 35.3233 2.44654C36.4575 2.46003 37.14 2.57392 39.0454 3.06775C41.9972 3.83265 44.0726 4.29459 47.1561 4.87309C48.5004 5.12519 49.7196 5.38145 49.8654 5.44255C50.072 5.529 50.1967 5.80454 50.4324 6.69608C50.693 7.68121 50.7099 7.8387 50.5549 7.8387C50.4561 7.8387 46.7066 7.47256 42.2229 7.02515C34.078 6.21235 34.0701 6.2119 33.5961 6.49188C33.1792 6.7379 33.0739 6.90607 32.7294 7.87518C31.9625 10.032 30.812 10.8234 28.4379 10.8274C26.1464 10.8313 24.866 9.99432 24.2108 8.06381C23.8842 7.10152 23.5566 6.61334 23.0739 6.36924C22.8458 6.25387 20.7064 6.42055 14.6314 7.02678C10.156 7.4733 6.45807 7.8387 6.41362 7.8387C6.36907 7.8387 6.42473 7.55249 6.53706 7.20251C6.64939 6.85269 6.77727 6.34818 6.82116 6.0814C6.87049 5.78184 6.99259 5.5508 7.1407 5.4771C7.27247 5.41141 8.20531 5.20898 9.21359 5.02732C11.6537 4.58748 15.2423 3.80092 17.7687 3.15198C21.1293 2.28875 21.828 2.21728 23.3786 2.57822Z" fill="#E2E7E9" fill-rule="evenodd" transform="matrix(1 0 0 1 0 21.472)" />
      <path d="M0.118895 22.2353C0.976068 22.021 1.85195 21.7939 2.76823 21.5492C3.39819 21.381 6.60647 21.5712 7.26799 21.8161C8.39593 22.2337 9.87364 23.2792 10.6289 24.1941L11.3233 25.0353L12.0023 24.2151C12.8033 23.2477 14.0582 22.3391 15.215 21.8892C15.846 21.6438 16.4453 21.5497 17.7119 21.4974C19.2778 21.4329 19.506 21.4611 21.4895 21.9633C21.9151 22.0711 22.3359 22.1762 22.7534 22.2788C22.6583 21.7737 22.5037 21.2801 22.2918 20.8083C21.9113 19.9609 21.3544 19.2031 20.6578 18.5847C20.5241 17.5858 20.2268 16.6154 19.7777 15.7118C21.0369 13.2364 21.9562 10.6046 22.511 7.88658C22.9112 5.82432 23.1744 3.01347 22.1534 1.33542C21.9194 0.922134 21.5768 0.579694 21.1621 0.34462C20.7475 0.109545 20.2763 -0.00934581 19.799 0.00062691C16.4967 0.00062691 14.46 5.66721 13.2941 10.7516C12.0662 10.5004 10.7996 10.5004 9.57166 10.7516C8.40574 5.66721 6.36905 0.00062691 3.06674 0.00062691C2.58979 -0.00973654 2.11894 0.108558 1.70433 0.342914C1.28972 0.577269 0.946878 0.91891 0.712307 1.33146C-0.310028 3.00951 -0.0441418 5.82036 0.354689 7.88262C0.909201 10.602 1.8285 13.2352 3.08801 15.7118C2.63848 16.6166 2.34119 17.5884 2.20792 18.5887C1.54195 19.1807 1.00307 19.9001 0.623495 20.7038C0.392391 21.1931 0.223234 21.7075 0.118895 22.2353ZM8.81584 21.0662C8.96192 20.8491 9.03989 20.5939 9.03989 20.3327C9.03989 19.9826 8.89982 19.6468 8.65051 19.3992C8.40119 19.1516 8.06304 19.0125 7.71045 19.0125C7.44751 19.0125 7.19048 19.0899 6.97186 19.235C6.75323 19.3801 6.58284 19.5862 6.48221 19.8275C6.38159 20.0687 6.35527 20.3342 6.40656 20.5903C6.45786 20.8464 6.58447 21.0817 6.7704 21.2663C6.95633 21.451 7.19321 21.5767 7.45109 21.6276C7.70898 21.6786 7.97628 21.6524 8.21921 21.5525C8.46213 21.4526 8.66976 21.2834 8.81584 21.0662ZM14.4167 19.235C14.6353 19.0899 14.8923 19.0125 15.1553 19.0125C15.5079 19.0125 15.846 19.1516 16.0953 19.3992C16.3447 19.6468 16.4847 19.9826 16.4847 20.3327C16.4847 20.5939 16.4067 20.8491 16.2607 21.0662C16.1146 21.2834 15.907 21.4526 15.664 21.5525C15.4211 21.6524 15.1538 21.6786 14.8959 21.6276C14.638 21.5767 14.4012 21.451 14.2152 21.2663C14.0293 21.0817 13.9027 20.8464 13.8514 20.5903C13.8001 20.3342 13.8264 20.0687 13.927 19.8275C14.0277 19.5862 14.1981 19.3801 14.4167 19.235Z" fill="#E2E7E9" fill-rule="evenodd" transform="matrix(1 0 0 1 17.223 0)" />
      <path d="M0.13605 3.96882C0.0471624 3.84383 -0.000381529 3.69448 2.38419e-06 3.54147C0.000386357 3.38846 0.0486797 3.23935 0.138193 3.1148C0.23106 2.98854 0.359644 2.89278 0.508231 2.84029L1.48905 2.52323C1.73489 2.44187 1.95831 2.30486 2.14167 2.12304C2.32503 1.94122 2.46331 1.71956 2.54558 1.47556L2.86704 0.488902C2.92023 0.343026 3.01818 0.217398 3.14708 0.12972C3.27598 0.0420427 3.42934 -0.003263 3.58555 0.000183105C3.74175 0.00363016 3.89293 0.0556574 4.01778 0.148933C4.14263 0.24221 4.23486 0.372034 4.28147 0.520111L4.60151 1.49542C4.68335 1.73966 4.82129 1.96165 5.00441 2.14385C5.18752 2.32604 5.41081 2.46345 5.65662 2.54522L6.64815 2.86583C6.79422 2.91746 6.92046 3.01301 7.0093 3.13919C7.09814 3.26537 7.14517 3.41591 7.14383 3.56987C7.14249 3.72382 7.09286 3.87353 7.00185 3.99818C6.91083 4.12282 6.78295 4.2162 6.636 4.26532L5.6359 4.58948C5.39668 4.67085 5.17918 4.80505 4.99976 4.98198C4.82034 5.1589 4.68368 5.37394 4.60008 5.6109L4.28076 6.59685C4.22866 6.74184 4.13238 6.86712 4.00531 6.9553C3.87823 7.04349 3.72665 7.0902 3.57162 7.08895C3.41659 7.0877 3.2658 7.03856 3.14018 6.94834C3.01456 6.85812 2.92035 6.73131 2.87062 6.5855L2.55273 5.6109C2.47069 5.36542 2.33177 5.14249 2.14715 4.96003C1.96253 4.77758 1.73736 4.64069 1.48976 4.56039L0.496086 4.23978C0.350357 4.18871 0.22463 4.09366 0.13605 3.96882Z" fill="#E2E7E9" fill-rule="evenodd" transform="translate(0.833 7.05)" />
      <path d="M0.00623703 2.15121C0.0191612 2.23642 0.0518875 2.31748 0.101807 2.38798C0.168423 2.48114 0.262539 2.55146 0.371162 2.58922L0.908501 2.76358C1.01889 2.79873 1.11884 2.85937 1.20145 2.94138C1.28337 3.02271 1.34517 3.12195 1.38266 3.23221L1.55412 3.75805C1.59039 3.86805 1.66059 3.96394 1.7548 4.03212C1.84901 4.1003 1.96245 4.13732 2.07904 4.13792C2.19563 4.13853 2.30945 4.10271 2.40438 4.03551C2.49931 3.96832 2.57054 3.87318 2.60796 3.76356L2.78291 3.23083C2.82061 3.12356 2.88277 3.02638 2.96453 2.94688C3.0463 2.86738 3.14546 2.80771 3.25429 2.77254L3.78329 2.60231C3.89415 2.56646 3.99084 2.49689 4.05964 2.40345C4.12845 2.31002 4.16589 2.19745 4.16666 2.08171C4.16743 1.96597 4.13148 1.85293 4.06392 1.7586C3.99636 1.66427 3.90061 1.59344 3.79024 1.55615L3.2536 1.38247C3.14405 1.34569 3.04456 1.28424 2.96291 1.20294C2.88125 1.12164 2.81965 1.0227 2.78291 0.913839L2.60935 0.387312C2.57454 0.276428 2.50535 0.179285 2.41164 0.109747C2.31793 0.0402088 2.20451 0.00182152 2.08752 6.29425e-05C1.97054 -0.00169182 1.85599 0.033268 1.7602 0.0999603C1.66442 0.166655 1.5923 0.261669 1.55412 0.371462L1.37918 0.903502C1.34309 1.01239 1.28199 1.11163 1.19868 1.19295C1.11643 1.27385 1.01673 1.33513 0.907108 1.37214L0.378105 1.54305C0.29599 1.571 0.221542 1.61752 0.160667 1.67896C0.0997925 1.74038 0.0541496 1.81503 0.0273438 1.897C0.000537872 1.97896 -0.00669098 2.06599 0.00623703 2.15121Z" fill="#E2E7E9" fill-rule="evenodd" transform="matrix(1 0 0 1 54.167 19.464)" />
    </g>
  </g>
</svg>